<svg xmlns="http://www.w3.org/2000/svg" xmlns:xlink="http://www.w3.org/1999/xlink" width="1057" zoomAndPan="magnify" viewBox="0 0 792.75 289.499996" height="386" preserveAspectRatio="xMidYMid meet" version="1.0"><defs><g/><clipPath id="b93b02e12b"><path d="M 0.558594 82.324219 L 226.667969 82.324219 L 226.667969 232.816406 L 0.558594 232.816406 Z M 0.558594 82.324219 " clip-rule="nonzero"/></clipPath><clipPath id="d07f1df3d2"><path d="M 709.878906 116.308594 L 717.804688 116.308594 L 717.804688 124.234375 L 709.878906 124.234375 Z M 709.878906 116.308594 " clip-rule="nonzero"/></clipPath><clipPath id="2a27398f31"><path d="M 713.839844 116.308594 C 711.652344 116.308594 709.878906 118.082031 709.878906 120.269531 C 709.878906 122.460938 711.652344 124.234375 713.839844 124.234375 C 716.03125 124.234375 717.804688 122.460938 717.804688 120.269531 C 717.804688 118.082031 716.03125 116.308594 713.839844 116.308594 Z M 713.839844 116.308594 " clip-rule="nonzero"/></clipPath><clipPath id="d516b9ad6e"><path d="M 0.878906 0.308594 L 8.804688 0.308594 L 8.804688 8.234375 L 0.878906 8.234375 Z M 0.878906 0.308594 " clip-rule="nonzero"/></clipPath><clipPath id="8951fa068c"><path d="M 4.839844 0.308594 C 2.652344 0.308594 0.878906 2.082031 0.878906 4.269531 C 0.878906 6.460938 2.652344 8.234375 4.839844 8.234375 C 7.03125 8.234375 8.804688 6.460938 8.804688 4.269531 C 8.804688 2.082031 7.03125 0.308594 4.839844 0.308594 Z M 4.839844 0.308594 " clip-rule="nonzero"/></clipPath><clipPath id="0789a6ca40"><rect x="0" width="9" y="0" height="9"/></clipPath></defs><g clip-path="url(#b93b02e12b)"><path fill="#5e17eb" d="M 166.410156 82.324219 C 186.375 124.0625 206.34375 165.796875 226.308594 207.53125 L 156.960938 207.53125 C 148.222656 189.214844 139.488281 170.898438 130.75 152.582031 L 113.449219 152.582031 C 99.222656 179.210938 85 205.835938 70.773438 232.464844 L 0.589844 232.464844 L 44.550781 147.625 L 128.105469 147.625 L 96.742188 82.324219 Z M 166.410156 82.324219 " fill-opacity="1" fill-rule="nonzero"/></g><g fill="#fafafa" fill-opacity="1"><g transform="translate(235.37544, 199.112465)"><g><path d="M 98.46875 -36.6875 C 97.039062 -24.457031 92.523438 -15.019531 84.921875 -8.375 C 77.328125 -1.726562 67.234375 1.59375 54.640625 1.59375 C 40.972656 1.59375 30.023438 -3.300781 21.796875 -13.09375 C 13.566406 -22.894531 9.453125 -36 9.453125 -52.40625 L 9.453125 -63.53125 C 9.453125 -74.28125 11.367188 -83.726562 15.203125 -91.875 C 19.046875 -100.03125 24.488281 -106.289062 31.53125 -110.65625 C 38.570312 -115.03125 46.722656 -117.21875 55.984375 -117.21875 C 68.265625 -117.21875 78.109375 -113.785156 85.515625 -106.921875 C 92.929688 -100.066406 97.25 -90.582031 98.46875 -78.46875 L 83.140625 -78.46875 C 81.816406 -87.675781 78.945312 -94.34375 74.53125 -98.46875 C 70.113281 -102.601562 63.929688 -104.671875 55.984375 -104.671875 C 46.242188 -104.671875 38.609375 -101.066406 33.078125 -93.859375 C 27.546875 -86.660156 24.78125 -76.421875 24.78125 -63.140625 L 24.78125 -51.9375 C 24.78125 -39.382812 27.398438 -29.398438 32.640625 -21.984375 C 37.878906 -14.578125 45.210938 -10.875 54.640625 -10.875 C 63.109375 -10.875 69.601562 -12.789062 74.125 -16.625 C 78.65625 -20.46875 81.660156 -27.15625 83.140625 -36.6875 Z M 98.46875 -36.6875 "/></g></g></g><g fill="#fafafa" fill-opacity="1"><g transform="translate(341.229938, 199.112465)"><g><path d="M 102.28125 0 L 86.953125 0 L 86.953125 -53.453125 L 28.671875 -53.453125 L 28.671875 0 L 13.421875 0 L 13.421875 -115.625 L 28.671875 -115.625 L 28.671875 -65.90625 L 86.953125 -65.90625 L 86.953125 -115.625 L 102.28125 -115.625 Z M 102.28125 0 "/></g></g></g><g fill="#fafafa" fill-opacity="1"><g transform="translate(457.16961, 199.112465)"><g><path d="M 77.265625 -30.171875 L 28.828125 -30.171875 L 17.953125 0 L 2.21875 0 L 46.375 -115.625 L 59.71875 -115.625 L 103.953125 0 L 88.3125 0 Z M 33.4375 -42.71875 L 72.75 -42.71875 L 53.046875 -96.8125 Z M 33.4375 -42.71875 "/></g></g></g><g fill="#fafafa" fill-opacity="1"><g transform="translate(563.26234, 199.112465)"><g><path d="M 93.3125 -103.078125 L 56.140625 -103.078125 L 56.140625 0 L 40.984375 0 L 40.984375 -103.078125 L 3.890625 -103.078125 L 3.890625 -115.625 L 93.3125 -115.625 Z M 93.3125 -103.078125 "/></g></g></g><g fill="#5e17eb" fill-opacity="1"><g transform="translate(663.586152, 160.722788)"><g><path d="M 21.296875 -6.71875 L 9.53125 -6.71875 L 7.296875 0 L 0.15625 0 L 12.28125 -32.578125 L 18.5 -32.578125 L 30.703125 0 L 23.5625 0 Z M 11.34375 -12.15625 L 19.484375 -12.15625 L 15.390625 -24.34375 Z M 11.34375 -12.15625 "/></g></g></g><g fill="#5e17eb" fill-opacity="1"><g transform="translate(694.418363, 160.722788)"><g><path d="M 16.046875 -32.578125 L 22.75 -32.578125 L 22.75 -10.03125 C 22.75 -7.957031 22.289062 -6.125 21.375 -4.53125 C 20.457031 -2.9375 19.164062 -1.707031 17.5 -0.84375 C 15.832031 0.0195312 13.945312 0.453125 11.84375 0.453125 C 8.394531 0.453125 5.707031 -0.421875 3.78125 -2.171875 C 1.851562 -3.929688 0.890625 -6.414062 0.890625 -9.625 L 7.65625 -9.625 C 7.65625 -8.03125 7.988281 -6.851562 8.65625 -6.09375 C 9.332031 -5.332031 10.394531 -4.953125 11.84375 -4.953125 C 13.125 -4.953125 14.144531 -5.390625 14.90625 -6.265625 C 15.664062 -7.140625 16.046875 -8.394531 16.046875 -10.03125 Z M 16.046875 -32.578125 "/></g></g></g><g fill="#5e17eb" fill-opacity="1"><g transform="translate(719.522617, 160.722788)"><g><path d="M 21.296875 -6.71875 L 9.53125 -6.71875 L 7.296875 0 L 0.15625 0 L 12.28125 -32.578125 L 18.5 -32.578125 L 30.703125 0 L 23.5625 0 Z M 11.34375 -12.15625 L 19.484375 -12.15625 L 15.390625 -24.34375 Z M 11.34375 -12.15625 "/></g></g></g><g fill="#5e17eb" fill-opacity="1"><g transform="translate(750.354828, 160.722788)"><g><path d="M 14.5625 -21.34375 L 20.671875 -32.578125 L 28.390625 -32.578125 L 18.90625 -16.421875 L 28.640625 0 L 20.828125 0 L 14.5625 -11.40625 L 8.296875 0 L 0.5 0 L 10.21875 -16.421875 L 0.734375 -32.578125 L 8.453125 -32.578125 Z M 14.5625 -21.34375 "/></g></g></g><g clip-path="url(#d07f1df3d2)"><g clip-path="url(#2a27398f31)"><g transform="matrix(1, 0, 0, 1, 709, 116)"><g clip-path="url(#0789a6ca40)"><g clip-path="url(#d516b9ad6e)"><g clip-path="url(#8951fa068c)"><path fill="#fafafa" d="M 0.878906 0.308594 L 8.804688 0.308594 L 8.804688 8.234375 L 0.878906 8.234375 Z M 0.878906 0.308594 " fill-opacity="1" fill-rule="nonzero"/></g></g></g></g></g></g></svg>