<svg xmlns="http://www.w3.org/2000/svg" xmlns:xlink="http://www.w3.org/1999/xlink" width="977" zoomAndPan="magnify" viewBox="0 0 732.75 227.249992" height="303" preserveAspectRatio="xMidYMid meet" version="1.0"><defs><g/><clipPath id="b399689af8"><path d="M 1.082031 64.347656 L 177.5 64.347656 L 177.5 181.710938 L 1.082031 181.710938 Z M 1.082031 64.347656 " clip-rule="nonzero"/></clipPath><clipPath id="19d76668ed"><path d="M 75.738281 0.425781 L 88.566406 0.425781 L 88.566406 13.253906 L 75.738281 13.253906 Z M 75.738281 0.425781 " clip-rule="nonzero"/></clipPath><clipPath id="99bb2265d7"><path d="M 82.152344 0.425781 C 78.609375 0.425781 75.738281 3.296875 75.738281 6.839844 C 75.738281 10.382812 78.609375 13.253906 82.152344 13.253906 C 85.695312 13.253906 88.566406 10.382812 88.566406 6.839844 C 88.566406 3.296875 85.695312 0.425781 82.152344 0.425781 Z M 82.152344 0.425781 " clip-rule="nonzero"/></clipPath><clipPath id="391a44ed59"><path d="M 0.738281 0.425781 L 13.566406 0.425781 L 13.566406 13.253906 L 0.738281 13.253906 Z M 0.738281 0.425781 " clip-rule="nonzero"/></clipPath><clipPath id="97fd65b01d"><path d="M 7.152344 0.425781 C 3.609375 0.425781 0.738281 3.296875 0.738281 6.839844 C 0.738281 10.382812 3.609375 13.253906 7.152344 13.253906 C 10.695312 13.253906 13.566406 10.382812 13.566406 6.839844 C 13.566406 3.296875 10.695312 0.425781 7.152344 0.425781 Z M 7.152344 0.425781 " clip-rule="nonzero"/></clipPath><clipPath id="ff8250d5c6"><rect x="0" width="14" y="0" height="14"/></clipPath><clipPath id="9b7b4d2aa6"><rect x="0" width="189" y="0" height="91"/></clipPath></defs><g clip-path="url(#b399689af8)"><path fill="#5e17eb" d="M 130.714844 64.347656 C 146.320312 96.96875 161.925781 129.589844 177.53125 162.210938 L 123.328125 162.210938 C 116.5 147.894531 109.671875 133.578125 102.839844 119.261719 L 89.316406 119.261719 C 78.199219 140.074219 67.082031 160.886719 55.960938 181.699219 L 1.105469 181.699219 L 35.464844 115.386719 L 100.773438 115.386719 L 76.257812 64.347656 Z M 130.714844 64.347656 " fill-opacity="1" fill-rule="nonzero"/></g><g fill="#131313" fill-opacity="1"><g transform="translate(184.611625, 156.272349)"><g><path d="M 76.96875 -28.671875 C 75.851562 -19.117188 72.328125 -11.742188 66.390625 -6.546875 C 60.453125 -1.359375 52.554688 1.234375 42.703125 1.234375 C 32.023438 1.234375 23.46875 -2.585938 17.03125 -10.234375 C 10.601562 -17.890625 7.390625 -28.132812 7.390625 -40.96875 L 7.390625 -49.65625 C 7.390625 -58.0625 8.890625 -65.445312 11.890625 -71.8125 C 14.890625 -78.1875 19.140625 -83.082031 24.640625 -86.5 C 30.148438 -89.914062 36.523438 -91.625 43.765625 -91.625 C 53.359375 -91.625 61.050781 -88.941406 66.84375 -83.578125 C 72.644531 -78.222656 76.019531 -70.804688 76.96875 -61.328125 L 64.984375 -61.328125 C 63.953125 -68.523438 61.707031 -73.738281 58.25 -76.96875 C 54.800781 -80.195312 49.972656 -81.8125 43.765625 -81.8125 C 36.148438 -81.8125 30.175781 -78.992188 25.84375 -73.359375 C 21.519531 -67.734375 19.359375 -59.726562 19.359375 -49.34375 L 19.359375 -40.59375 C 19.359375 -30.789062 21.40625 -22.988281 25.5 -17.1875 C 29.601562 -11.394531 35.335938 -8.5 42.703125 -8.5 C 49.328125 -8.5 54.40625 -10 57.9375 -13 C 61.476562 -16 63.828125 -21.222656 64.984375 -28.671875 Z M 76.96875 -28.671875 "/></g></g></g><g fill="#131313" fill-opacity="1"><g transform="translate(267.348509, 156.272349)"><g><path d="M 79.953125 0 L 67.96875 0 L 67.96875 -41.78125 L 22.40625 -41.78125 L 22.40625 0 L 10.484375 0 L 10.484375 -90.375 L 22.40625 -90.375 L 22.40625 -51.515625 L 67.96875 -51.515625 L 67.96875 -90.375 L 79.953125 -90.375 Z M 79.953125 0 "/></g></g></g><g fill="#131313" fill-opacity="1"><g transform="translate(357.968045, 156.272349)"><g><path d="M 60.390625 -23.59375 L 22.53125 -23.59375 L 14.03125 0 L 1.734375 0 L 36.25 -90.375 L 46.671875 -90.375 L 81.25 0 L 69.03125 0 Z M 26.125 -33.390625 L 56.859375 -33.390625 L 41.46875 -75.671875 Z M 26.125 -33.390625 "/></g></g></g><g fill="#131313" fill-opacity="1"><g transform="translate(440.891127, 156.272349)"><g><path d="M 72.9375 -80.578125 L 43.890625 -80.578125 L 43.890625 0 L 32.03125 0 L 32.03125 -80.578125 L 3.046875 -80.578125 L 3.046875 -90.375 L 72.9375 -90.375 Z M 72.9375 -80.578125 "/></g></g></g><g transform="matrix(1, 0, 0, 1, 523, 70)"><g clip-path="url(#9b7b4d2aa6)"><g fill="#5e17eb" fill-opacity="1"><g transform="translate(0.826288, 72.302839)"><g><path d="M 34.46875 -10.859375 L 15.421875 -10.859375 L 11.796875 0 L 0.25 0 L 19.875 -52.71875 L 29.9375 -52.71875 L 49.671875 0 L 38.125 0 Z M 18.359375 -19.65625 L 31.53125 -19.65625 L 24.90625 -39.390625 Z M 18.359375 -19.65625 "/></g></g></g><g fill="#5e17eb" fill-opacity="1"><g transform="translate(50.721434, 72.302839)"><g><path d="M 25.96875 -52.71875 L 36.828125 -52.71875 L 36.828125 -16.21875 C 36.828125 -12.863281 36.082031 -9.898438 34.59375 -7.328125 C 33.113281 -4.753906 31.019531 -2.769531 28.3125 -1.375 C 25.613281 0.0195312 22.5625 0.71875 19.15625 0.71875 C 13.582031 0.71875 9.238281 -0.695312 6.125 -3.53125 C 3.007812 -6.363281 1.453125 -10.375 1.453125 -15.5625 L 12.390625 -15.5625 C 12.390625 -12.988281 12.929688 -11.082031 14.015625 -9.84375 C 15.097656 -8.613281 16.8125 -8 19.15625 -8 C 21.226562 -8 22.878906 -8.710938 24.109375 -10.140625 C 25.347656 -11.566406 25.96875 -13.59375 25.96875 -16.21875 Z M 25.96875 -52.71875 "/></g></g></g><g fill="#5e17eb" fill-opacity="1"><g transform="translate(91.347141, 72.302839)"><g><path d="M 34.46875 -10.859375 L 15.421875 -10.859375 L 11.796875 0 L 0.25 0 L 19.875 -52.71875 L 29.9375 -52.71875 L 49.671875 0 L 38.125 0 Z M 18.359375 -19.65625 L 31.53125 -19.65625 L 24.90625 -39.390625 Z M 18.359375 -19.65625 "/></g></g></g><g fill="#5e17eb" fill-opacity="1"><g transform="translate(141.242286, 72.302839)"><g><path d="M 23.578125 -34.546875 L 33.453125 -52.71875 L 45.953125 -52.71875 L 30.59375 -26.578125 L 46.34375 0 L 33.703125 0 L 23.578125 -18.46875 L 13.4375 0 L 0.796875 0 L 16.546875 -26.578125 L 1.1875 -52.71875 L 13.6875 -52.71875 Z M 23.578125 -34.546875 "/></g></g></g><g clip-path="url(#19d76668ed)"><g clip-path="url(#99bb2265d7)"><g transform="matrix(1, 0, 0, 1, 75, 0)"><g clip-path="url(#ff8250d5c6)"><g clip-path="url(#391a44ed59)"><g clip-path="url(#97fd65b01d)"><path fill="#131313" d="M 0.738281 0.425781 L 13.566406 0.425781 L 13.566406 13.253906 L 0.738281 13.253906 Z M 0.738281 0.425781 " fill-opacity="1" fill-rule="nonzero"/></g></g></g></g></g></g></g></g></svg>